{"asset":{"version":"2.0","generator":"babylon.js glTF exporter for 3ds max 2019 v1.3.33"},"scene":0,"scenes":[{"nodes":[0],"extensions":{}}],"nodes":[{"children":[1,2],"translation":[0.0,0.0,0.0],"rotation":[0.0,0.0,0.0,1.0],"scale":[0.01,0.01,0.01],"name":"root"},{"mesh":0,"translation":[0.0,0.0,0.0],"rotation":[0.0,0.0,0.0,1.0],"scale":[1.0,1.0,1.0],"name":"PLAN002"},{"translation":[0.0,0.0,0.0],"rotation":[0.0,0.0,0.0,1.0],"scale":[1.0,1.0,1.0],"name":"Default light"}],"meshes":[{"primitives":[{"attributes":{"POSITION":1,"NORMAL":2,"TEXCOORD_0":3},"indices":0,"mode":4,"material":0}],"name":"PLAN002"}],"accessors":[{"bufferView":0,"componentType":5123,"count":8196,"type":"SCALAR","name":"accessorIndices"},{"bufferView":1,"componentType":5126,"count":8196,"max":[145.412079,236.190491,125.346893],"min":[-152.939789,5.340576E-05,-130.991],"type":"VEC3","name":"accessorPositions"},{"bufferView":1,"byteOffset":98352,"componentType":5126,"count":8196,"type":"VEC3","name":"accessorNormals"},{"bufferView":2,"componentType":5126,"count":8196,"type":"VEC2","name":"accessorUVs"}],"bufferViews":[{"buffer":0,"byteLength":16392,"name":"bufferViewScalar"},{"buffer":0,"byteOffset":16392,"byteLength":196704,"byteStride":12,"name":"bufferViewFloatVec3"},{"buffer":0,"byteOffset":213096,"byteLength":65568,"byteStride":8,"name":"bufferViewFloatVec2"}],"buffers":[{"uri":"PLAN002.bin","byteLength":278664}],"materials":[{"pbrMetallicRoughness":{"baseColorFactor":[1.0,1.0,1.0,1.0],"baseColorTexture":{"index":0,"texCoord":0},"metallicFactor":0.0,"roughnessFactor":0.99},"emissiveFactor":[0.0,0.0,0.0],"alphaMode":"OPAQUE","name":"plantes"}],"textures":[{"sampler":0,"source":0,"name":"plantes.jpg"}],"images":[{"uri":"plantes.jpg"}],"samplers":[{"magFilter":9729,"minFilter":9987,"wrapS":10497,"wrapT":10497}]}